<svg width="195" height="82" viewBox="0 0 195 82" fill="none" xmlns="http://www.w3.org/2000/svg">
<g clip-path="url(#clip0_6005_403)">
<path d="M113.079 40.9044V38.7063L112.791 38.2284H115.188V39.1842H115.14L114.613 38.3718H113.702V39.4709H113.846C113.942 39.4709 114.086 39.4709 114.181 39.4709C114.325 39.4709 114.421 39.4709 114.565 39.5186C114.661 39.5186 114.805 39.5664 114.9 39.6142C114.996 39.662 115.092 39.7098 115.188 39.7576C115.284 39.8054 115.332 39.9009 115.38 39.9965C115.428 40.0921 115.428 40.2354 115.428 40.3788C115.428 40.5699 115.38 40.7133 115.284 40.8089C115.188 40.9522 115.044 41.0478 114.9 41.0956C114.757 41.1911 114.565 41.2389 114.373 41.2389C114.181 41.2867 113.99 41.2867 113.846 41.2867H112.791L113.079 40.9044ZM113.846 41.2389C113.99 41.2389 114.086 41.2389 114.181 41.1911C114.277 41.1434 114.373 41.0956 114.469 41.0478C114.565 41 114.613 40.9044 114.661 40.8089C114.709 40.7133 114.709 40.6177 114.709 40.5221C114.709 40.3788 114.709 40.2354 114.661 40.1399C114.613 40.0443 114.565 39.9487 114.469 39.9009C114.373 39.8531 114.277 39.8054 114.181 39.7576C114.086 39.7098 113.942 39.7098 113.798 39.7098H113.654V41.2389H113.846Z" fill="black"/>
<path d="M116.77 40.7611L117.297 40.9522C117.345 40.8089 117.393 40.6655 117.393 40.4744C117.441 40.2832 117.441 40.1399 117.441 39.9487C117.441 39.7576 117.441 39.5664 117.489 39.3753C117.489 39.1842 117.489 38.9452 117.489 38.7541L117.105 38.2762H119.79L119.454 38.7541V40.9522L119.79 41.4301H118.4L118.831 40.9522V38.4674H117.777C117.777 38.7541 117.777 39.0408 117.777 39.2797C117.777 39.5664 117.777 39.8054 117.777 40.0443C117.777 40.2832 117.729 40.4744 117.729 40.6655C117.681 40.8566 117.633 41 117.585 41.0956C117.489 41.2389 117.441 41.3345 117.297 41.3823C117.201 41.4301 117.058 41.4779 116.914 41.4779L116.77 40.7611Z" fill="black"/>
<path d="M123.529 41.0956L123.241 40.4266H121.995L121.755 41.0478L122.187 41.4301H121.132L121.468 41.0478L122.666 38.2284H122.906L124.2 41.1434L124.535 41.4301H123.049L123.529 41.0956ZM122.091 40.1876H123.145L122.618 38.9452L122.091 40.1876Z" fill="black"/>
<path d="M126.261 40.9044V38.7063L125.973 38.2284H128.226V39.2319H128.178L127.555 38.3718H126.836V40.8566L127.268 41.3345H125.878L126.261 40.9044Z" fill="black"/>
<path d="M132.828 39.662C132.828 39.9009 132.78 40.0921 132.732 40.331C132.636 40.5222 132.541 40.7133 132.397 40.9044C132.253 41.0478 132.061 41.1911 131.822 41.2867C131.582 41.3823 131.342 41.4301 131.055 41.4301C130.815 41.4301 130.623 41.3823 130.479 41.2867C130.288 41.1911 130.144 41.0956 130.048 40.9522C129.904 40.8089 129.856 40.6655 129.76 40.4744C129.712 40.2832 129.664 40.0921 129.664 39.9009C129.664 39.662 129.712 39.4709 129.76 39.2319C129.856 38.993 129.952 38.8497 130.096 38.6585C130.24 38.5152 130.431 38.3718 130.671 38.2762C130.911 38.1807 131.15 38.1329 131.438 38.1329C131.678 38.1329 131.869 38.1807 132.013 38.2762C132.205 38.3718 132.349 38.4674 132.445 38.6107C132.541 38.7541 132.636 38.8974 132.732 39.0886C132.78 39.3275 132.828 39.5187 132.828 39.662ZM131.055 38.3718C130.911 38.3718 130.767 38.4196 130.671 38.4674C130.575 38.5629 130.479 38.6107 130.431 38.7541C130.383 38.8497 130.336 38.993 130.336 39.0886C130.336 39.1842 130.288 39.3275 130.288 39.4231C130.288 39.662 130.288 39.9009 130.336 40.0921C130.383 40.331 130.431 40.5221 130.527 40.6655C130.623 40.8566 130.719 41 130.863 41.0956C131.007 41.1911 131.15 41.2389 131.294 41.2389C131.438 41.2389 131.582 41.1911 131.678 41.1434C131.774 41.0478 131.869 41 131.917 40.8566C131.965 40.7611 132.013 40.6177 132.061 40.5222C132.109 40.4266 132.109 40.2832 132.109 40.1876C132.109 39.9487 132.061 39.7098 132.013 39.5187C131.965 39.2797 131.869 39.0886 131.822 38.9452C131.726 38.7541 131.63 38.6585 131.486 38.5152C131.39 38.4196 131.246 38.3718 131.055 38.3718Z" fill="black"/>
<path d="M134.17 38.2284H137.046V39.2319H136.999L136.375 38.3718H135.896V40.9044L136.232 41.3823H134.889L135.225 40.9044V38.4196H134.746L134.122 39.2797H134.074V38.2284H134.17Z" fill="black"/>
<path d="M139.587 38.2284C139.779 38.2284 139.97 38.2284 140.114 38.2762C140.258 38.2762 140.402 38.324 140.546 38.3718C140.642 38.4196 140.737 38.5152 140.833 38.5629C140.881 38.6585 140.929 38.7541 140.929 38.8974C140.929 38.993 140.929 39.0886 140.881 39.1842C140.833 39.2797 140.785 39.3275 140.69 39.3753C140.642 39.4231 140.546 39.4709 140.45 39.5186C140.354 39.5664 140.258 39.6142 140.162 39.6142C140.45 39.662 140.69 39.7576 140.881 39.9009C141.073 40.0443 141.121 40.2354 141.121 40.4744C141.121 40.6177 141.073 40.7611 140.977 40.9044C140.881 41 140.737 41.0956 140.594 41.1434C140.45 41.1911 140.258 41.2389 140.066 41.2867C139.875 41.3345 139.683 41.3345 139.539 41.3345H138.484L138.772 40.8566V38.7063L138.484 38.2284H139.587ZM139.395 39.662C139.539 39.662 139.683 39.662 139.779 39.6142C139.875 39.5664 139.97 39.5186 140.066 39.4709C140.162 39.4231 140.21 39.3275 140.258 39.2797C140.306 39.2319 140.306 39.1364 140.306 39.0408C140.306 38.8974 140.306 38.8019 140.258 38.7063C140.21 38.6107 140.162 38.5629 140.066 38.5152C139.97 38.4674 139.923 38.4196 139.827 38.4196C139.731 38.4196 139.635 38.4196 139.587 38.4196H139.443V39.662H139.395ZM139.539 41.2389C139.683 41.2389 139.779 41.2389 139.875 41.1911C139.97 41.1434 140.066 41.0956 140.162 41.0478C140.258 41 140.306 40.9044 140.354 40.8566C140.402 40.7611 140.402 40.6655 140.402 40.5699C140.402 40.4266 140.354 40.2832 140.306 40.1876C140.258 40.0921 140.162 39.9965 140.114 39.9487C140.018 39.9009 139.923 39.8531 139.779 39.8054C139.635 39.8054 139.491 39.7576 139.347 39.7576V41.1911H139.539V41.2389Z" fill="black"/>
<path d="M145.723 39.662C145.723 39.9009 145.675 40.0921 145.627 40.331C145.531 40.5222 145.435 40.7133 145.291 40.9044C145.147 41.0478 144.956 41.1911 144.716 41.2867C144.476 41.3823 144.237 41.4301 143.949 41.4301C143.709 41.4301 143.518 41.3823 143.374 41.2867C143.182 41.1911 143.038 41.0956 142.942 40.9522C142.799 40.8089 142.751 40.6655 142.655 40.4744C142.607 40.2832 142.559 40.0921 142.559 39.9009C142.559 39.662 142.607 39.4709 142.655 39.2319C142.751 38.993 142.847 38.8497 142.99 38.6585C143.134 38.5152 143.326 38.3718 143.566 38.2762C143.805 38.1807 144.045 38.1329 144.333 38.1329C144.572 38.1329 144.764 38.1807 144.908 38.2762C145.1 38.3718 145.243 38.4674 145.339 38.6107C145.435 38.7541 145.531 38.8974 145.627 39.0886C145.723 39.3275 145.723 39.5187 145.723 39.662ZM143.997 38.3718C143.853 38.3718 143.709 38.4196 143.614 38.4674C143.518 38.5629 143.422 38.6107 143.374 38.7541C143.326 38.8497 143.278 38.993 143.278 39.0886C143.278 39.1842 143.23 39.3275 143.23 39.4231C143.23 39.662 143.23 39.9009 143.278 40.0921C143.326 40.331 143.374 40.5221 143.47 40.6655C143.566 40.8566 143.662 41 143.805 41.0956C143.949 41.1911 144.093 41.2389 144.237 41.2389C144.381 41.2389 144.524 41.1911 144.62 41.1434C144.716 41.0478 144.812 41 144.86 40.8566C144.908 40.7611 144.956 40.6177 145.004 40.5222C145.052 40.4266 145.052 40.2832 145.052 40.1876C145.052 39.9487 145.004 39.7098 144.956 39.5187C144.908 39.2797 144.812 39.0886 144.764 38.9452C144.668 38.7541 144.572 38.6585 144.428 38.5152C144.285 38.4196 144.141 38.3718 143.997 38.3718Z" fill="black"/>
<path d="M147.4 40.9044V38.7063L147.065 38.2284H148.215C148.311 38.2284 148.359 38.2284 148.455 38.2284C148.551 38.2284 148.647 38.2284 148.743 38.2762C148.838 38.2762 148.934 38.324 149.03 38.3718C149.126 38.4196 149.222 38.4674 149.27 38.5152C149.318 38.5629 149.414 38.6585 149.462 38.7541C149.51 38.8497 149.51 38.9452 149.51 39.0886C149.51 39.2319 149.462 39.3753 149.414 39.4709C149.366 39.5664 149.27 39.662 149.174 39.7576C149.078 39.8531 148.982 39.9009 148.838 39.9487C148.695 39.9965 148.599 40.0443 148.455 40.0443C148.359 40.0443 148.311 40.0443 148.215 40.0921C148.119 40.0921 148.072 40.0921 148.024 40.0921V40.9522L148.455 41.4301H147.065L147.4 40.9044ZM148.024 39.9009C148.263 39.9009 148.503 39.8531 148.647 39.7098C148.791 39.5664 148.838 39.3753 148.838 39.1364C148.838 38.8974 148.743 38.7063 148.599 38.5629C148.455 38.4196 148.263 38.3718 147.976 38.3718V39.9009H148.024Z" fill="black"/>
<path d="M151.091 40.9044V38.7063L150.756 38.2284H152.098L151.763 38.7063V40.8089L153.296 38.1807H154.207L153.872 38.6585V40.8566L154.207 41.3345H152.865L153.201 40.8566V38.7541L151.667 41.3823H150.756L151.091 40.9044Z" fill="black"/>
<path d="M155.597 38.2284H158.473V39.2319H158.426L157.802 38.3718H157.323V40.9044L157.659 41.3823H156.316L156.652 40.9044V38.4196H156.173L155.549 39.2797H155.501V38.2284H155.597Z" fill="black"/>
<path d="M162.26 41.3823H159.864L160.151 40.9044V38.7063L159.864 38.2284H162.164V39.1842H162.117L161.589 38.3718H160.774V39.662H162.069V39.8531H160.774V41.1911H161.637L162.26 40.331H162.308L162.26 41.3823Z" fill="black"/>
<path d="M163.698 40.7611L164.226 40.9522C164.274 40.8089 164.322 40.6655 164.322 40.4744C164.369 40.2832 164.369 40.1399 164.369 39.9487C164.369 39.7576 164.369 39.5664 164.417 39.3753C164.417 39.1842 164.417 38.9452 164.417 38.7541L164.034 38.2762H166.718L166.383 38.7541V40.9522L166.718 41.4301H165.328L165.76 40.9522V38.4674H164.705C164.705 38.7541 164.705 39.0408 164.705 39.2797C164.705 39.5664 164.705 39.8054 164.705 40.0443C164.705 40.2832 164.657 40.4744 164.657 40.6655C164.609 40.8566 164.561 41 164.513 41.0956C164.417 41.2389 164.369 41.3345 164.226 41.3823C164.13 41.4301 163.986 41.4779 163.842 41.4779L163.698 40.7611Z" fill="black"/>
<path d="M168.444 40.9044V38.7063L168.108 38.2284H169.451L169.115 38.7063V39.4709H169.259C169.355 39.4709 169.451 39.4709 169.594 39.4709C169.69 39.4709 169.834 39.5186 169.93 39.5186C170.026 39.5664 170.17 39.5664 170.265 39.6142C170.361 39.662 170.457 39.7098 170.553 39.8054C170.649 39.9009 170.697 39.9487 170.745 40.0921C170.793 40.1876 170.841 40.331 170.841 40.4744C170.841 40.6655 170.793 40.8089 170.697 40.9044C170.601 41 170.457 41.0956 170.313 41.1911C170.17 41.2389 169.978 41.2867 169.786 41.3345C169.594 41.3823 169.403 41.3823 169.259 41.3823H168.204L168.444 40.9044ZM169.211 41.2389C169.355 41.2389 169.451 41.2389 169.546 41.1911C169.642 41.1434 169.738 41.0956 169.834 41.0478C169.93 41 169.978 40.9044 170.026 40.8089C170.074 40.7133 170.074 40.6177 170.074 40.4744C170.074 40.331 170.074 40.1876 170.026 40.0921C169.978 39.9965 169.93 39.9009 169.834 39.8531C169.738 39.8054 169.642 39.7576 169.546 39.7098C169.451 39.662 169.307 39.662 169.211 39.662H169.067V41.1911H169.211V41.2389Z" fill="black"/>
<path d="M175.395 41.3823H174.052L174.388 40.9044V39.8531H172.95V40.9044L173.285 41.3823H171.943L172.279 40.9044V38.7063L171.943 38.2284H173.285L172.95 38.7063V39.662H174.388V38.7063L174.052 38.2284H175.395L175.059 38.7063V40.9044L175.395 41.3823Z" fill="black"/>
<path d="M177.168 40.9044V38.7063L176.833 38.2284H178.175L177.839 38.7063V39.4709H177.983C178.079 39.4709 178.175 39.4709 178.319 39.4709C178.414 39.4709 178.558 39.5186 178.654 39.5186C178.75 39.5664 178.894 39.5664 178.99 39.6142C179.086 39.662 179.181 39.7098 179.277 39.8054C179.373 39.9009 179.421 39.9487 179.469 40.0921C179.517 40.1876 179.565 40.331 179.565 40.4744C179.565 40.6655 179.517 40.8089 179.421 40.9044C179.325 41 179.181 41.0956 179.038 41.1911C178.894 41.2389 178.702 41.2867 178.51 41.3345C178.319 41.3823 178.127 41.3823 177.983 41.3823H176.881L177.168 40.9044ZM177.935 41.2389C178.079 41.2389 178.175 41.2389 178.271 41.1911C178.367 41.1434 178.462 41.0956 178.558 41.0478C178.654 41 178.702 40.9044 178.75 40.8089C178.798 40.7133 178.798 40.6177 178.798 40.4744C178.798 40.331 178.798 40.1876 178.75 40.0921C178.702 39.9965 178.654 39.9009 178.558 39.8531C178.462 39.8054 178.367 39.7576 178.271 39.7098C178.175 39.662 178.031 39.662 177.935 39.662H177.791V41.1911H177.935V41.2389ZM179.709 41.3823L180.044 40.9044V38.7063L179.709 38.2284H181.051L180.715 38.7063V40.9044L181.051 41.3823H179.709Z" fill="black"/>
<path d="M182.824 40.9044V38.7063L182.489 38.2284H183.831L183.496 38.7063V40.8089L185.029 38.1807H185.94L185.605 38.6585V40.8566L185.94 41.3345H184.55L184.886 40.8566V38.7541L183.352 41.3823H182.441L182.824 40.9044ZM184.215 38.0373C183.927 38.0373 183.687 37.9895 183.543 37.8462C183.4 37.7506 183.304 37.5594 183.304 37.3683H183.831C183.831 37.5117 183.879 37.655 183.927 37.7506C183.975 37.8462 184.071 37.8939 184.215 37.8939C184.358 37.8939 184.406 37.8462 184.502 37.7506C184.55 37.655 184.598 37.5594 184.598 37.3683H185.125C185.125 37.6072 185.029 37.7506 184.886 37.8462C184.742 37.9417 184.55 38.0373 184.215 38.0373Z" fill="black"/>
<path d="M114.421 48.1678V48.1201C114.373 48.1201 114.325 48.1201 114.325 48.1201C114.277 48.1201 114.229 48.1201 114.181 48.1201C113.942 48.1201 113.75 48.0723 113.606 48.0245C113.414 47.9767 113.271 47.8811 113.175 47.7378C113.031 47.6422 112.983 47.4988 112.887 47.3555C112.839 47.2121 112.791 47.0688 112.791 46.9254C112.791 46.7343 112.839 46.5909 112.887 46.4476C112.935 46.3042 113.031 46.1608 113.175 46.0653C113.319 45.9697 113.462 45.8741 113.654 45.7786C113.846 45.7308 114.086 45.683 114.325 45.683C114.373 45.683 114.373 45.683 114.373 45.683H114.421V45.6352L114.086 45.1573H115.38L115.044 45.6352V45.683C115.092 45.683 115.14 45.683 115.14 45.683C115.188 45.683 115.236 45.683 115.284 45.683C115.524 45.683 115.715 45.7308 115.859 45.7786C116.051 45.8263 116.195 45.9219 116.291 46.0653C116.434 46.1608 116.482 46.3042 116.578 46.4476C116.626 46.5909 116.674 46.7343 116.674 46.8776C116.674 47.0688 116.626 47.2121 116.578 47.3555C116.53 47.4988 116.434 47.6422 116.291 47.7378C116.147 47.8333 116.003 47.9289 115.811 48.0245C115.619 48.0723 115.38 48.1201 115.14 48.1201C115.092 48.1201 115.092 48.1201 115.092 48.1201H115.044V48.1678L115.38 48.6457H114.086L114.421 48.1678ZM114.421 45.9697C114.373 45.9219 114.277 45.9219 114.181 45.9219C114.038 45.9219 113.894 45.9697 113.798 46.0653C113.702 46.1608 113.606 46.2564 113.558 46.352C113.51 46.4476 113.462 46.5909 113.462 46.6865C113.462 46.7821 113.462 46.8776 113.462 46.9254C113.462 47.2599 113.558 47.4988 113.702 47.69C113.846 47.8811 114.086 47.9289 114.469 47.9289V45.9697H114.421ZM114.996 47.8811C115.044 47.9289 115.14 47.9289 115.236 47.9289C115.38 47.9289 115.524 47.8811 115.619 47.7856C115.715 47.69 115.811 47.5944 115.859 47.4988C115.907 47.4033 115.955 47.2599 115.955 47.1643C115.955 47.0688 115.955 46.9732 115.955 46.9254C115.955 46.5909 115.859 46.352 115.715 46.1608C115.572 45.9697 115.332 45.9219 114.948 45.9219V47.8811H114.996Z" fill="black"/>
<path d="M121.276 46.7821C121.276 47.021 121.228 47.2121 121.18 47.4511C121.084 47.6422 120.988 47.8333 120.844 48.0245C120.701 48.1678 120.509 48.3112 120.269 48.4068C120.029 48.5023 119.79 48.5501 119.502 48.5501C119.263 48.5501 119.071 48.5023 118.927 48.4068C118.735 48.3112 118.591 48.2156 118.496 48.0723C118.352 47.9289 118.304 47.7855 118.208 47.5944C118.16 47.4033 118.112 47.2121 118.112 47.021C118.112 46.7821 118.16 46.5909 118.208 46.352C118.304 46.1131 118.4 45.9697 118.543 45.7786C118.687 45.6352 118.879 45.4918 119.119 45.3963C119.358 45.3007 119.598 45.2529 119.886 45.2529C120.125 45.2529 120.317 45.3007 120.461 45.3963C120.653 45.4918 120.796 45.5874 120.892 45.7308C121.036 45.8741 121.084 46.0175 121.18 46.2086C121.228 46.3998 121.276 46.5909 121.276 46.7821ZM119.502 45.4918C119.358 45.4918 119.215 45.5396 119.119 45.5874C119.023 45.683 118.927 45.7308 118.879 45.8741C118.831 45.9697 118.783 46.1131 118.783 46.2086C118.783 46.3042 118.735 46.4476 118.735 46.5431C118.735 46.7821 118.735 47.021 118.783 47.2121C118.831 47.4511 118.879 47.6422 118.975 47.7855C119.071 47.9767 119.167 48.12 119.31 48.2156C119.454 48.3112 119.598 48.359 119.742 48.359C119.886 48.359 120.029 48.3112 120.125 48.2634C120.221 48.1678 120.317 48.12 120.365 47.9767C120.413 47.8811 120.461 47.7378 120.509 47.6422C120.557 47.5466 120.557 47.4033 120.557 47.3077C120.557 47.0688 120.509 46.8298 120.461 46.6387C120.413 46.3998 120.317 46.2086 120.269 46.0653C120.173 45.8741 120.077 45.7786 119.934 45.6352C119.838 45.5396 119.694 45.4918 119.502 45.4918Z" fill="black"/>
<path d="M125.926 48.5023H124.583L124.919 48.0245V46.9732H123.481V48.0245L123.816 48.5023H122.474L122.81 48.0245V45.8264L122.474 45.3485H123.816L123.481 45.8264V46.7343H124.919V45.8264L124.583 45.3485H125.926L125.59 45.8264V48.0245L125.926 48.5023Z" fill="black"/>
<path d="M127.268 49.3625V48.3112H127.747C127.891 48.1201 127.939 47.7856 127.987 47.4033C128.035 46.9732 128.035 46.4476 128.035 45.8264L127.651 45.3485H130.336L130 45.8264V48.3112H130.479V49.3625H130.431L129.808 48.5023H127.891L127.268 49.3625ZM129.377 48.3112V45.5874H128.322C128.322 45.9697 128.322 46.3042 128.322 46.5909C128.322 46.8776 128.274 47.1643 128.274 47.3555C128.226 47.5944 128.226 47.7856 128.178 47.9289C128.131 48.0723 128.083 48.2156 128.035 48.3112H129.377Z" fill="black"/>
<path d="M18.7906 31.634C18.6468 31.634 18.4071 31.634 18.2153 31.5385C17.9277 31.4429 17.4963 31.2517 16.969 30.0093C16.1062 27.9545 13.8532 22.3159 13.6136 21.7902C13.4218 21.3601 13.3739 21.3124 13.278 21.3124C13.1821 21.3124 13.1342 21.4079 12.9425 21.838L9.68289 30.296C9.44321 30.965 9.1556 31.4907 8.48451 31.5862C8.38864 31.5862 8.14896 31.634 8.05309 31.634C7.95722 31.634 7.90929 31.6818 7.90929 31.7296C7.90929 31.8252 8.00516 31.8252 8.1969 31.8252C8.86799 31.8252 9.68289 31.7774 9.82669 31.7774C9.9705 31.7774 10.5937 31.8252 10.9292 31.8252C11.073 31.8252 11.1689 31.7774 11.1689 31.7296C11.1689 31.6818 11.1209 31.634 11.0251 31.634H10.8813C10.6416 31.634 10.354 31.4907 10.354 31.2517C10.354 31.0128 10.4019 30.6783 10.5457 30.3438L11.4085 27.9068C11.4565 27.859 11.4565 27.8112 11.5524 27.8112H14.6681C14.764 27.8112 14.764 27.859 14.8119 27.9068L16.1541 31.2517C16.2021 31.2995 16.2021 31.3951 16.2021 31.4429C16.2021 31.5863 16.1062 31.634 16.1062 31.634C16.0583 31.634 16.0103 31.6818 16.0103 31.7296C16.0103 31.8252 16.1541 31.8252 16.4417 31.8252C17.4484 31.873 18.5029 31.873 18.6947 31.873C18.8385 31.873 18.9823 31.8252 18.9823 31.7774C18.9344 31.634 18.8385 31.634 18.7906 31.634ZM14.4764 27.2855H11.7441C11.6962 27.2855 11.6482 27.2378 11.6962 27.19L12.9425 23.5105C12.9904 23.4149 12.9904 23.3671 13.0383 23.3671C13.0863 23.3671 13.0863 23.4149 13.1342 23.5105L14.5243 27.19C14.5243 27.2378 14.5243 27.2855 14.4764 27.2855Z" fill="black"/>
<path d="M29.2404 21.9336C28.5693 21.9336 27.7544 21.9813 27.4189 21.9813C27.323 21.9813 26.4602 21.9336 25.7891 21.9336C25.6453 21.9336 25.5494 21.9813 25.5494 22.0291C25.5494 22.0769 25.5973 22.1247 25.6453 22.1247C25.7891 22.1247 26.0288 22.1247 26.1246 22.1725C26.604 22.2681 26.6999 22.507 26.7478 22.9371C26.7957 23.3671 26.7957 23.7494 26.7957 25.8998V28.289C26.7957 29.5793 26.7957 30.6783 26.6999 31.2517C26.6519 31.634 26.556 31.9685 26.2684 32.0163C26.1246 32.0641 25.9808 32.0641 25.837 32.0641C25.7411 32.0641 25.7411 32.1119 25.7411 32.1597C25.7411 32.2552 25.837 32.2552 25.9808 32.2552C26.4122 32.2552 27.323 32.2075 27.3709 32.2075C27.4189 32.2075 28.3296 32.2552 29.1445 32.2552C29.2883 32.2552 29.3842 32.2075 29.3842 32.1597C29.3842 32.1119 29.3363 32.0641 29.2883 32.0641C29.1445 32.0641 28.8569 32.0163 28.6173 32.0163C28.1858 31.9685 28.09 31.6818 28.042 31.2517C27.9462 30.6783 27.9462 29.5793 27.9462 28.289V22.6981C27.9462 22.5548 27.9941 22.4592 28.042 22.4592C28.1858 22.4114 28.4255 22.3636 28.6652 22.3636C29.0007 22.3636 29.8636 22.3158 30.6305 23.0326C31.3975 23.7494 31.4454 24.7051 31.4454 25.1352C31.4454 26.3776 30.3429 27.3811 28.9528 27.3811C28.6652 27.3811 28.5693 27.3811 28.5693 27.5245C28.5693 27.5723 28.6652 27.62 28.7131 27.62C28.7611 27.62 28.9528 27.62 29.0007 27.62C31.0619 27.62 32.5479 26.3298 32.5479 24.3706C32.5479 23.6538 32.1645 23.0326 31.8289 22.7459C31.6851 22.507 31.0619 21.9336 29.2404 21.9336Z" fill="black"/>
<path d="M50.188 31.634C50.0922 31.634 49.9004 31.5862 49.7087 31.5385C49.2773 31.3951 49.0855 31.204 48.8459 30.9172C48.5583 30.535 46.0656 26.5688 45.826 26.1387L48.1268 22.8415C48.5583 22.2681 48.7979 21.838 49.2293 21.7424C49.3731 21.6946 49.6128 21.6946 49.7087 21.6946C49.8046 21.6946 49.8525 21.6469 49.8525 21.5991C49.8525 21.5513 49.8046 21.5035 49.6128 21.5035C49.1335 21.5035 48.5103 21.5513 48.4144 21.5513C48.2706 21.5513 47.6954 21.5035 47.1202 21.5035C46.9285 21.5035 46.8805 21.5513 46.8805 21.5991C46.8805 21.6469 46.9285 21.6946 47.0243 21.6946C47.1202 21.6946 47.3119 21.6946 47.4557 21.7424C47.5996 21.7902 47.6954 21.8858 47.6954 21.9813C47.6954 22.1247 47.6475 22.2681 47.5516 22.4592C47.4078 22.7459 45.8739 25.0874 45.4425 25.6608C44.6755 24.4662 44.1003 23.4627 43.4771 22.4114C43.3813 22.2681 43.3333 22.0769 43.3333 21.9813C43.3333 21.8858 43.3813 21.7902 43.5251 21.7424C43.6209 21.6946 43.8127 21.6946 43.9085 21.6946C44.0044 21.6946 44.0524 21.6469 44.0524 21.5991C44.0524 21.5513 44.0044 21.5035 43.8127 21.5035C43.3333 21.5035 42.5664 21.5513 42.4705 21.5513C42.3746 21.5513 41.1762 21.5035 40.7928 21.5035C40.601 21.5035 40.5531 21.5513 40.5531 21.5991C40.5531 21.6469 40.601 21.6946 40.6969 21.6946C40.7928 21.6946 41.0804 21.7424 41.3201 21.7902C41.7994 21.9336 42.087 22.3636 42.4226 22.8893L44.7234 26.5688L42.135 30.4872C41.6556 31.204 41.368 31.4907 40.9366 31.5862C40.6969 31.634 40.5052 31.634 40.4093 31.634C40.3134 31.634 40.3134 31.6818 40.3134 31.7296C40.3134 31.7774 40.3614 31.8252 40.4572 31.8252C40.9366 31.8252 41.6556 31.7774 41.7515 31.7774C41.8473 31.7774 42.806 31.8252 43.1416 31.8252C43.2375 31.8252 43.3333 31.7774 43.3333 31.7296C43.3333 31.6818 43.2854 31.634 43.2375 31.634C43.1895 31.634 43.0457 31.634 42.9498 31.5862C42.806 31.5385 42.7102 31.4429 42.7102 31.3473C42.7102 31.204 42.7581 30.965 42.9019 30.7261L45.1549 27.0944C46.0177 28.4802 46.8326 29.8182 47.6475 31.1562C47.7913 31.3951 47.6475 31.4907 47.5516 31.5385C47.5037 31.5385 47.4557 31.5862 47.4557 31.634C47.4557 31.6818 47.5037 31.7296 47.8872 31.7296C48.6062 31.7296 49.3252 31.7774 50.188 31.7774C50.3319 31.7774 50.3798 31.7296 50.3798 31.6818C50.3319 31.634 50.2839 31.634 50.188 31.634Z" fill="black"/>
<path d="M69.1224 31.634C68.9786 31.634 68.691 31.5862 68.4993 31.5862C68.0678 31.5385 67.972 31.2517 67.924 30.8217C67.8761 30.2483 67.8761 29.1492 67.8761 27.859V25.4697C67.8761 23.6538 67.8761 22.9371 67.8761 21.6946C67.924 21.2646 67.7323 21.169 67.5406 21.4557C64.5686 25.0874 62.5553 27.3333 60.542 29.627C60.4941 29.6748 60.3982 29.6748 60.3982 29.5793C60.3982 25.0874 60.3982 22.9371 60.4462 22.507C60.4941 22.0291 60.59 21.7902 60.9735 21.7424C61.1652 21.6946 61.2131 21.6946 61.309 21.6946C61.3569 21.6946 61.4049 21.6469 61.4049 21.5991C61.4049 21.5035 61.3569 21.5035 61.1652 21.5035C60.7338 21.5035 59.823 21.5513 59.7751 21.5513C59.6792 21.5513 58.8164 21.5035 58.1453 21.5035C58.0015 21.5035 57.9056 21.5513 57.9056 21.5991C57.9056 21.6469 57.9535 21.6946 58.0015 21.6946C58.1453 21.6946 58.385 21.6946 58.4808 21.7424C58.9602 21.838 59.0561 22.0769 59.104 22.507C59.1519 22.9371 59.104 23.3193 59.1519 25.4697V31.7296C59.104 32.1597 59.2957 32.2552 59.4875 31.9685L59.6792 31.7296L60.8776 30.2483C62.6512 28.0501 64.5686 25.8998 66.4381 23.7972C66.5819 23.6538 66.6298 23.7494 66.6298 23.8928V27.859C66.6298 29.1492 66.6298 30.2483 66.5819 30.8217C66.5339 31.204 66.4381 31.5385 66.1504 31.5862C66.0066 31.634 65.8628 31.634 65.719 31.634C65.6232 31.634 65.6232 31.6818 65.6232 31.7296C65.6232 31.8252 65.6711 31.8252 65.8628 31.8252C66.2942 31.8252 67.205 31.7774 67.253 31.7774C67.3488 31.7774 68.2117 31.8252 69.0266 31.8252C69.1704 31.8252 69.2662 31.7774 69.2662 31.7296C69.2662 31.634 69.2183 31.634 69.1224 31.634Z" fill="black"/>
<path d="M87.3378 29.3403C87.2419 29.3403 87.2419 29.3881 87.1939 29.5315C87.146 29.7704 86.9543 30.3916 86.6667 30.6783C86.0914 31.2517 85.2286 31.3473 84.174 31.3473C81.1062 31.3473 78.9971 28.958 78.9971 26.3298C78.9971 23.8928 79.9078 21.7902 83.5988 21.7902C85.4204 21.7902 87.0981 22.3636 87.0981 23.9406C87.0981 24.1317 87.0981 24.2273 87.1939 24.2273C87.2898 24.2273 87.3378 24.0361 87.3378 23.3671C87.3378 22.5548 87.4336 21.9336 87.4336 21.7902C87.4336 21.6946 87.3857 21.6469 87.2419 21.6469C86.7146 21.6469 85.4204 21.2646 83.6947 21.2646C79.1409 21.2646 77.7028 24.2751 77.7028 26.4732C77.7028 29.627 79.8119 31.9685 84.174 31.9685C85.0848 31.9685 86.1873 31.873 86.7625 31.634C87.0022 31.5385 87.0501 31.4907 87.146 31.2518C87.2898 30.7739 87.4816 29.5793 87.4816 29.4837C87.4336 29.4359 87.4336 29.3403 87.3378 29.3403Z" fill="black"/>
<path d="M115.907 21.4557C115.236 21.4557 114.421 21.5035 114.086 21.5035C113.99 21.5035 113.127 21.4557 112.456 21.4557C112.312 21.4557 112.216 21.5035 112.216 21.5513C112.216 21.5991 112.264 21.6469 112.312 21.6469C112.456 21.6469 112.695 21.6469 112.791 21.6946C113.271 21.7902 113.367 22.0291 113.414 22.4592C113.462 22.8893 113.462 23.2716 113.462 25.4219V27.8112C113.462 29.1014 113.462 30.2005 113.414 30.7739C113.367 31.1562 113.271 31.4907 112.983 31.5385C112.839 31.5862 112.695 31.5862 112.552 31.5862C112.456 31.5862 112.456 31.634 112.456 31.6818C112.456 31.7774 112.552 31.7774 112.695 31.7774C113.127 31.7774 114.038 31.7296 114.086 31.7296C114.181 31.7296 115.044 31.7774 115.859 31.7774C116.003 31.7774 116.099 31.7296 116.099 31.6818C116.099 31.634 116.051 31.5862 116.003 31.5862C115.859 31.5862 115.572 31.5385 115.332 31.5385C114.9 31.4907 114.805 31.204 114.757 30.7739C114.661 30.2005 114.661 29.1014 114.661 27.8112V22.2203C114.661 22.0769 114.709 21.9814 114.757 21.9814C114.9 21.9336 115.14 21.8858 115.38 21.8858C115.715 21.8858 116.578 21.838 117.345 22.5548C118.112 23.2716 118.16 24.2273 118.16 24.6573C118.16 25.8998 117.058 26.9033 115.667 26.9033C115.38 26.9033 115.284 26.9033 115.284 27.0466C115.284 27.0944 115.38 27.1422 115.428 27.1422C115.476 27.1422 115.667 27.1422 115.715 27.1422C117.777 27.1422 119.263 25.852 119.263 23.8928C119.263 23.176 118.879 22.5548 118.544 22.2681C118.352 22.0291 117.681 21.4557 115.907 21.4557Z" fill="black"/>
<path d="M136.903 31.634C136.759 31.634 136.567 31.634 136.327 31.5385C136.04 31.4429 135.608 31.2517 135.081 30.0093C134.218 27.9545 131.965 22.3159 131.726 21.7902C131.534 21.3601 131.486 21.3124 131.39 21.3124C131.294 21.3124 131.246 21.4079 131.055 21.838L127.795 30.296C127.555 30.965 127.268 31.4907 126.597 31.5862C126.501 31.5862 126.261 31.634 126.165 31.634C126.117 31.634 126.021 31.6818 126.021 31.7296C126.021 31.8252 126.117 31.8252 126.309 31.8252C126.98 31.8252 127.795 31.7774 127.939 31.7774C128.083 31.7774 128.706 31.8252 129.041 31.8252C129.185 31.8252 129.281 31.7774 129.281 31.7296C129.281 31.6818 129.233 31.634 129.137 31.634H128.993C128.754 31.634 128.466 31.4907 128.466 31.2517C128.466 31.0128 128.514 30.6783 128.658 30.3438L129.521 27.9068C129.569 27.859 129.569 27.8112 129.664 27.8112H132.78C132.876 27.8112 132.876 27.859 132.924 27.9068L134.266 31.2517C134.314 31.2995 134.314 31.3951 134.314 31.4429C134.314 31.5863 134.218 31.634 134.218 31.634C134.17 31.634 134.122 31.6818 134.122 31.7296C134.122 31.8252 134.266 31.8252 134.554 31.8252C135.56 31.873 136.615 31.873 136.807 31.873C136.951 31.873 137.094 31.8252 137.094 31.7774C137.046 31.634 136.999 31.634 136.903 31.634ZM132.636 27.2855H129.904C129.856 27.2855 129.856 27.2378 129.856 27.19L131.103 23.5105C131.15 23.4149 131.198 23.3671 131.198 23.3671C131.246 23.3671 131.246 23.4149 131.294 23.5105L132.636 27.19C132.684 27.2378 132.684 27.2855 132.636 27.2855Z" fill="black"/>
<path d="M152.29 21.3601C152.194 21.3601 151.763 21.5035 150.852 21.5035H145.435C145.243 21.5035 144.716 21.4557 144.285 21.4557C143.901 21.4079 143.757 21.3124 143.662 21.3124C143.614 21.3124 143.566 21.5035 143.518 21.5513C143.47 21.6469 143.182 22.8415 143.182 22.9848C143.182 23.0804 143.23 23.1282 143.23 23.1282C143.278 23.1282 143.326 23.0804 143.374 22.9848C143.422 22.8893 143.47 22.7937 143.614 22.5548C143.853 22.2203 144.189 22.1247 145.1 22.1247L147.209 22.0769V27.859C147.209 29.1492 147.209 30.2483 147.161 30.8217C147.113 31.204 147.017 31.5385 146.729 31.5862C146.586 31.634 146.442 31.634 146.298 31.634C146.202 31.634 146.202 31.6818 146.202 31.7296C146.202 31.8252 146.25 31.8252 146.442 31.8252C146.873 31.8252 147.784 31.7774 147.832 31.7774C147.88 31.7774 148.791 31.8252 149.605 31.8252C149.749 31.8252 149.845 31.7774 149.845 31.7296C149.845 31.6818 149.797 31.634 149.749 31.634C149.605 31.634 149.318 31.5862 149.078 31.5862C148.647 31.5385 148.551 31.2517 148.503 30.8217C148.455 30.2483 148.455 29.1492 148.455 27.859V22.0769L150.277 22.1247C151.667 22.1725 152.002 22.4592 152.05 22.8893V23.0326C152.05 23.2238 152.098 23.2716 152.146 23.2716C152.194 23.2716 152.242 23.2238 152.242 23.0804C152.242 22.9371 152.29 21.9814 152.29 21.5991C152.386 21.4557 152.386 21.3601 152.29 21.3601Z" fill="black"/>
<path d="M171.704 31.634C171.56 31.634 171.272 31.5862 171.032 31.5862C170.601 31.5385 170.505 31.2517 170.457 30.8217C170.409 30.2483 170.409 29.1492 170.409 27.859V25.4697C170.409 23.6538 170.409 22.9371 170.409 21.6946C170.457 21.2646 170.265 21.169 170.074 21.4557C167.102 25.0874 165.088 27.3333 163.075 29.627C163.027 29.6748 162.931 29.6748 162.931 29.5793C162.931 25.0874 162.931 22.9371 162.979 22.507C163.027 22.0291 163.123 21.7902 163.507 21.7424C163.698 21.6946 163.746 21.6946 163.842 21.6946C163.89 21.6946 163.938 21.6469 163.938 21.5991C163.938 21.5035 163.89 21.5035 163.698 21.5035C163.267 21.5035 162.356 21.5513 162.308 21.5513C162.212 21.5513 161.35 21.5035 160.678 21.5035C160.535 21.5035 160.439 21.5513 160.439 21.5991C160.439 21.6469 160.487 21.6946 160.535 21.6946C160.678 21.6946 160.918 21.6946 161.014 21.7424C161.493 21.838 161.589 22.0769 161.637 22.507C161.685 22.9371 161.637 23.3193 161.685 25.4697V31.7296C161.637 32.1597 161.829 32.2552 162.021 31.9685L162.212 31.7296L163.411 30.2483C165.184 28.0501 167.102 25.8998 168.971 23.7972C169.115 23.6538 169.163 23.7494 169.163 23.8928V27.859C169.163 29.1492 169.163 30.2483 169.115 30.8217C169.067 31.204 168.971 31.5385 168.684 31.5862C168.54 31.634 168.396 31.634 168.252 31.634C168.156 31.634 168.156 31.6818 168.156 31.7296C168.156 31.8252 168.204 31.8252 168.396 31.8252C168.827 31.8252 169.738 31.7774 169.786 31.7774C169.882 31.7774 170.745 31.8252 171.56 31.8252C171.704 31.8252 171.799 31.7774 171.799 31.7296C171.799 31.634 171.751 31.634 171.704 31.634Z" fill="black"/>
<path d="M186.851 21.3601C186.803 21.3601 186.755 21.4079 186.659 21.4557C186.611 21.4557 186.276 21.5035 186.036 21.5035C185.844 21.5035 182.777 21.5513 182.489 21.5513C182.393 21.5513 181.53 21.5035 180.859 21.5035C180.715 21.5035 180.619 21.5513 180.619 21.5991C180.619 21.6469 180.667 21.6946 180.715 21.6946C180.859 21.6946 181.099 21.6946 181.195 21.7424C181.674 21.838 181.77 22.0291 181.818 22.3636C181.866 22.6026 181.866 23.176 181.866 25.4697V27.859C181.866 29.5315 181.818 30.6305 181.77 30.965C181.674 31.3473 181.626 31.4907 181.386 31.5385C181.243 31.5862 181.099 31.5862 180.955 31.5862C180.859 31.5862 180.859 31.634 180.859 31.6818C180.859 31.7774 180.955 31.7774 181.099 31.7774C181.53 31.7774 182.393 31.7296 182.441 31.7296C182.537 31.7296 183.4 31.7774 184.215 31.7774C184.358 31.7774 184.454 31.7296 184.454 31.6818C184.454 31.634 184.406 31.5862 184.358 31.5862C184.215 31.5862 183.927 31.5385 183.687 31.5385C183.352 31.4907 183.208 31.2995 183.16 30.9172C183.112 30.4872 183.064 29.1492 183.064 27.8112V22.1725C183.064 22.0769 183.112 22.0291 183.208 22.0291L185.173 22.0769C186.036 22.0769 186.372 22.3636 186.468 22.507C186.563 22.6981 186.611 22.9371 186.611 23.0326C186.611 23.1282 186.659 23.176 186.707 23.176C186.803 23.176 186.803 23.1282 186.803 23.0326C186.851 22.8893 186.851 22.2681 186.851 22.1247C186.899 21.7424 186.947 21.5991 186.947 21.5035C186.899 21.4557 186.899 21.3601 186.851 21.3601Z" fill="black"/>
<path d="M100.472 19.9744V12.2331H99.1777V19.9744H100.472Z" fill="black"/>
<path d="M106.368 22.2203V21.5035H93.2817V22.2203H106.368Z" fill="black"/>
<path d="M100.472 23.5583L100.136 67.6643C100.136 67.8077 99.9926 69.8625 99.8488 69.8625C99.705 69.8625 99.5612 67.8555 99.5612 67.6643L99.1777 23.5583H98.5066L98.986 68.2855C98.986 68.9545 99.1777 70.6748 99.8488 70.6748C100.472 70.6748 100.712 68.9067 100.712 68.2855L101.191 23.5583H100.472Z" fill="black"/>
</g>
<defs>
<clipPath id="clip0_6005_403">
<rect width="195" height="82" fill="white"/>
</clipPath>
</defs>
</svg>
