<svg width="200" height="66" viewBox="0 0 200 66" fill="none" xmlns="http://www.w3.org/2000/svg">
<path d="M117.483 32.1285V29.6654L117.162 29.1299H119.839V30.2008H119.786L119.197 29.2905H118.179V30.5221H118.34C118.447 30.5221 118.608 30.5221 118.715 30.5221C118.876 30.5221 118.983 30.5221 119.143 30.5757C119.25 30.5757 119.411 30.6292 119.518 30.6828C119.625 30.7363 119.732 30.7899 119.839 30.8434C119.946 30.8969 120 31.004 120.054 31.1111C120.107 31.2182 120.107 31.3789 120.107 31.5395C120.107 31.7537 120.054 31.9144 119.946 32.0214C119.839 32.1821 119.679 32.2892 119.518 32.3427C119.357 32.4498 119.143 32.5034 118.929 32.5034C118.715 32.5569 118.501 32.5569 118.34 32.5569H117.162L117.483 32.1285ZM118.34 32.5034C118.501 32.5034 118.608 32.5034 118.715 32.4498C118.822 32.3963 118.929 32.3427 119.036 32.2892C119.143 32.2356 119.197 32.1285 119.25 32.0214C119.304 31.9144 119.304 31.8073 119.304 31.7002C119.304 31.5395 119.304 31.3789 119.25 31.2718C119.197 31.1647 119.143 31.0576 119.036 31.004C118.929 30.9505 118.822 30.8969 118.715 30.8434C118.608 30.7899 118.447 30.7899 118.286 30.7899H118.126V32.5034H118.34Z" fill="#303030"/>
<path d="M121.606 31.9681L122.195 32.1823C122.249 32.0216 122.303 31.861 122.303 31.6468C122.356 31.4326 122.356 31.2719 122.356 31.0578C122.356 30.8436 122.356 30.6294 122.41 30.4152C122.41 30.201 122.41 29.9333 122.41 29.7191L121.981 29.1836H124.98L124.605 29.7191V32.1823L124.98 32.7177H123.427L123.909 32.1823V29.3978H122.731C122.731 29.7191 122.731 30.0404 122.731 30.3081C122.731 30.6294 122.731 30.8971 122.731 31.1649C122.731 31.4326 122.677 31.6468 122.677 31.861C122.624 32.0752 122.57 32.2358 122.517 32.3429C122.41 32.5035 122.356 32.6106 122.195 32.6642C122.088 32.7177 121.928 32.7713 121.767 32.7713L121.606 31.9681Z" fill="#303030"/>
<path d="M129.157 32.3427L128.835 31.5931H127.443L127.175 32.2892L127.657 32.7176H126.479L126.854 32.2892L128.193 29.1299H128.461L129.906 32.3963L130.281 32.7176H128.621L129.157 32.3427ZM127.55 31.3253H128.728L128.139 29.9331L127.55 31.3253Z" fill="#303030"/>
<path d="M132.209 32.1285V29.6654L131.888 29.1299H134.404V30.2544H134.351L133.655 29.2905H132.851V32.075L133.333 32.6105H131.78L132.209 32.1285Z" fill="#303030"/>
<path d="M139.545 30.736C139.545 31.0037 139.491 31.2179 139.438 31.4856C139.331 31.6998 139.224 31.914 139.063 32.1282C138.902 32.2889 138.688 32.4495 138.42 32.5566C138.153 32.6637 137.885 32.7172 137.564 32.7172C137.296 32.7172 137.082 32.6637 136.921 32.5566C136.707 32.4495 136.546 32.3424 136.439 32.1818C136.278 32.0211 136.225 31.8605 136.118 31.6463C136.064 31.4321 136.011 31.2179 136.011 31.0037C136.011 30.736 136.064 30.5218 136.118 30.2541C136.225 29.9863 136.332 29.8257 136.493 29.6115C136.653 29.4508 136.867 29.2902 137.135 29.1831C137.403 29.076 137.671 29.0225 137.992 29.0225C138.26 29.0225 138.474 29.076 138.635 29.1831C138.849 29.2902 139.009 29.3973 139.116 29.5579C139.224 29.7186 139.331 29.8792 139.438 30.0934C139.491 30.3611 139.545 30.5753 139.545 30.736ZM137.564 29.2902C137.403 29.2902 137.242 29.3437 137.135 29.3973C137.028 29.5044 136.921 29.5579 136.867 29.7186C136.814 29.8257 136.76 29.9863 136.76 30.0934C136.76 30.2005 136.707 30.3611 136.707 30.4682C136.707 30.736 136.707 31.0037 136.76 31.2179C136.814 31.4856 136.867 31.6998 136.975 31.8605C137.082 32.0747 137.189 32.2353 137.349 32.3424C137.51 32.4495 137.671 32.5031 137.831 32.5031C137.992 32.5031 138.153 32.4495 138.26 32.396C138.367 32.2889 138.474 32.2353 138.527 32.0747C138.581 31.9676 138.635 31.8069 138.688 31.6998C138.742 31.5927 138.742 31.4321 138.742 31.325C138.742 31.0573 138.688 30.7895 138.635 30.5753C138.581 30.3076 138.474 30.0934 138.42 29.9328C138.313 29.7186 138.206 29.6115 138.046 29.4508C137.938 29.3437 137.778 29.2902 137.564 29.2902Z" fill="#303030"/>
<path d="M141.044 29.1299H144.257V30.2544H144.203L143.507 29.2905H142.972V32.1285L143.347 32.664H141.847L142.222 32.1285V29.3441H141.687L140.991 30.3079H140.937V29.1299H141.044Z" fill="#303030"/>
<path d="M147.095 29.1299C147.309 29.1299 147.523 29.1299 147.684 29.1834C147.845 29.1834 148.005 29.237 148.166 29.2905C148.273 29.3441 148.38 29.4512 148.487 29.5047C148.541 29.6118 148.594 29.7189 148.594 29.8795C148.594 29.9866 148.594 30.0937 148.541 30.2008C148.487 30.3079 148.434 30.3615 148.327 30.415C148.273 30.4686 148.166 30.5221 148.059 30.5757C147.952 30.6292 147.845 30.6828 147.738 30.6828C148.059 30.7363 148.327 30.8434 148.541 31.004C148.755 31.1647 148.809 31.3789 148.809 31.6466C148.809 31.8073 148.755 31.9679 148.648 32.1285C148.541 32.2356 148.38 32.3427 148.22 32.3963C148.059 32.4498 147.845 32.5034 147.631 32.5569C147.416 32.6105 147.202 32.6105 147.042 32.6105H145.863L146.185 32.075V29.6654L145.863 29.1299H147.095ZM146.881 30.7363C147.042 30.7363 147.202 30.7363 147.309 30.6828C147.416 30.6292 147.523 30.5757 147.631 30.5221C147.738 30.4686 147.791 30.3615 147.845 30.3079C147.898 30.2544 147.898 30.1473 147.898 30.0402C147.898 29.8795 147.898 29.7725 147.845 29.6654C147.791 29.5583 147.738 29.5047 147.631 29.4512C147.523 29.3976 147.47 29.3441 147.363 29.3441C147.256 29.3441 147.149 29.3441 147.095 29.3441H146.934V30.7363H146.881ZM147.042 32.5034C147.202 32.5034 147.309 32.5034 147.416 32.4498C147.523 32.3963 147.631 32.3427 147.738 32.2892C147.845 32.2356 147.898 32.1285 147.952 32.075C148.005 31.9679 148.005 31.8608 148.005 31.7537C148.005 31.5931 147.952 31.4324 147.898 31.3253C147.845 31.2182 147.738 31.1111 147.684 31.0576C147.577 31.004 147.47 30.9505 147.309 30.897C147.149 30.897 146.988 30.8434 146.827 30.8434V32.4498H147.042V32.5034Z" fill="#303030"/>
<path d="M153.949 30.736C153.949 31.0037 153.896 31.2179 153.842 31.4856C153.735 31.6998 153.628 31.914 153.467 32.1282C153.307 32.2889 153.092 32.4495 152.825 32.5566C152.557 32.6637 152.289 32.7172 151.968 32.7172C151.7 32.7172 151.486 32.6637 151.325 32.5566C151.111 32.4495 150.95 32.3424 150.843 32.1818C150.683 32.0211 150.629 31.8605 150.522 31.6463C150.469 31.4321 150.415 31.2179 150.415 31.0037C150.415 30.736 150.469 30.5218 150.522 30.2541C150.629 29.9863 150.736 29.8257 150.897 29.6115C151.058 29.4508 151.272 29.2902 151.54 29.1831C151.807 29.076 152.075 29.0225 152.396 29.0225C152.664 29.0225 152.878 29.076 153.039 29.1831C153.253 29.2902 153.414 29.3973 153.521 29.5579C153.628 29.7186 153.735 29.8792 153.842 30.0934C153.949 30.3611 153.949 30.5753 153.949 30.736ZM152.021 29.2902C151.861 29.2902 151.7 29.3437 151.593 29.3973C151.486 29.5044 151.379 29.5579 151.325 29.7186C151.272 29.8257 151.218 29.9863 151.218 30.0934C151.218 30.2005 151.165 30.3611 151.165 30.4682C151.165 30.736 151.165 31.0037 151.218 31.2179C151.272 31.4856 151.325 31.6998 151.432 31.8605C151.54 32.0747 151.647 32.2353 151.807 32.3424C151.968 32.4495 152.129 32.5031 152.289 32.5031C152.45 32.5031 152.61 32.4495 152.718 32.396C152.825 32.2889 152.932 32.2353 152.985 32.0747C153.039 31.9676 153.092 31.8069 153.146 31.6998C153.199 31.5927 153.199 31.4321 153.199 31.325C153.199 31.0573 153.146 30.7895 153.092 30.5753C153.039 30.3076 152.932 30.0934 152.878 29.9328C152.771 29.7186 152.664 29.6115 152.503 29.4508C152.343 29.3437 152.182 29.2902 152.021 29.2902Z" fill="#303030"/>
<path d="M155.823 32.1285V29.6654L155.448 29.1299H156.734C156.841 29.1299 156.894 29.1299 157.001 29.1299C157.108 29.1299 157.216 29.1299 157.323 29.1834C157.43 29.1834 157.537 29.237 157.644 29.2905C157.751 29.3441 157.858 29.3976 157.912 29.4512C157.965 29.5047 158.072 29.6118 158.126 29.7189C158.179 29.826 158.179 29.9331 158.179 30.0937C158.179 30.2544 158.126 30.415 158.072 30.5221C158.019 30.6292 157.912 30.7363 157.805 30.8434C157.697 30.9505 157.59 31.004 157.43 31.0576C157.269 31.1111 157.162 31.1647 157.001 31.1647C156.894 31.1647 156.841 31.1647 156.734 31.2182C156.627 31.2182 156.573 31.2182 156.519 31.2182V32.1821L157.001 32.7176H155.448L155.823 32.1285ZM156.519 31.004C156.787 31.004 157.055 30.9505 157.216 30.7899C157.376 30.6292 157.43 30.415 157.43 30.1473C157.43 29.8795 157.323 29.6654 157.162 29.5047C157.001 29.3441 156.787 29.2905 156.466 29.2905V31.004H156.519Z" fill="#303030"/>
<path d="M159.946 32.1284V29.6652L159.572 29.1297H161.071L160.696 29.6652V32.0213L162.41 29.0762H163.427L163.052 29.6116V32.0748L163.427 32.6103H161.928L162.303 32.0748V29.7187L160.589 32.6639H159.572L159.946 32.1284Z" fill="#303030"/>
<path d="M164.98 29.1299H168.193V30.2544H168.139L167.443 29.2905H166.908V32.1285L167.282 32.664H165.783L166.158 32.1285V29.3441H165.622L164.926 30.3079H164.873V29.1299H164.98Z" fill="#303030"/>
<path d="M172.423 32.664H169.746L170.067 32.1285V29.6654L169.746 29.1299H172.316V30.2008H172.262L171.673 29.2905H170.763V30.7363H172.209V30.9505H170.763V32.4498H171.727L172.423 31.486H172.477L172.423 32.664Z" fill="#303030"/>
<path d="M174.029 31.9681L174.618 32.1823C174.672 32.0216 174.726 31.861 174.726 31.6468C174.779 31.4326 174.779 31.2719 174.779 31.0578C174.779 30.8436 174.779 30.6294 174.833 30.4152C174.833 30.201 174.833 29.9333 174.833 29.7191L174.404 29.1836H177.403L177.028 29.7191V32.1823L177.403 32.7177H175.85L176.332 32.1823V29.3978H175.154C175.154 29.7191 175.154 30.0404 175.154 30.3081C175.154 30.6294 175.154 30.8971 175.154 31.1649C175.154 31.4326 175.1 31.6468 175.1 31.861C175.047 32.0752 174.993 32.2358 174.94 32.3429C174.833 32.5035 174.779 32.6106 174.618 32.6642C174.511 32.7177 174.351 32.7713 174.19 32.7713L174.029 31.9681Z" fill="#303030"/>
<path d="M179.331 32.1285V29.6654L178.956 29.1299H180.455L180.08 29.6654V30.5221H180.241C180.348 30.5221 180.455 30.5221 180.616 30.5221C180.723 30.5221 180.884 30.5757 180.991 30.5757C181.098 30.6292 181.258 30.6292 181.365 30.6828C181.473 30.7363 181.58 30.7899 181.687 30.897C181.794 31.004 181.847 31.0576 181.901 31.2182C181.955 31.3253 182.008 31.486 182.008 31.6466C182.008 31.8608 181.954 32.0214 181.847 32.1285C181.74 32.2356 181.58 32.3427 181.419 32.4498C181.258 32.5034 181.044 32.5569 180.83 32.6105C180.616 32.664 180.402 32.664 180.241 32.664H179.063L179.331 32.1285ZM180.187 32.5034C180.348 32.5034 180.455 32.5034 180.562 32.4498C180.669 32.3963 180.776 32.3427 180.884 32.2892C180.991 32.2356 181.044 32.1285 181.098 32.0215C181.151 31.9144 181.151 31.8073 181.151 31.6466C181.151 31.486 181.151 31.3253 181.098 31.2182C181.044 31.1111 180.991 31.004 180.884 30.9505C180.776 30.897 180.669 30.8434 180.562 30.7899C180.455 30.7363 180.295 30.7363 180.187 30.7363H180.027V32.4498H180.187V32.5034Z" fill="#303030"/>
<path d="M187.095 32.664H185.596L185.971 32.1285V30.9505H184.364V32.1285L184.739 32.664H183.24L183.614 32.1285V29.6654L183.24 29.1299H184.739L184.364 29.6654V30.7363H185.971V29.6654L185.596 29.1299H187.095L186.72 29.6654V32.1285L187.095 32.664Z" fill="#303030"/>
<path d="M189.076 32.1285V29.6654L188.701 29.1299H190.201L189.826 29.6654V30.5221H189.987C190.094 30.5221 190.201 30.5221 190.361 30.5221C190.469 30.5221 190.629 30.5757 190.736 30.5757C190.843 30.6292 191.004 30.6292 191.111 30.6828C191.218 30.7363 191.325 30.7899 191.432 30.897C191.539 31.004 191.593 31.0576 191.647 31.2182C191.7 31.3253 191.754 31.486 191.754 31.6466C191.754 31.8608 191.7 32.0214 191.593 32.1285C191.486 32.2356 191.325 32.3427 191.165 32.4498C191.004 32.5034 190.79 32.5569 190.576 32.6105C190.361 32.664 190.147 32.664 189.987 32.664H188.755L189.076 32.1285ZM189.933 32.5034C190.094 32.5034 190.201 32.5034 190.308 32.4498C190.415 32.3963 190.522 32.3427 190.629 32.2892C190.736 32.2356 190.79 32.1285 190.843 32.0215C190.897 31.9144 190.897 31.8073 190.897 31.6466C190.897 31.486 190.897 31.3253 190.843 31.2182C190.79 31.1111 190.736 31.004 190.629 30.9505C190.522 30.897 190.415 30.8434 190.308 30.7899C190.201 30.7363 190.04 30.7363 189.933 30.7363H189.772V32.4498H189.933V32.5034ZM191.914 32.664L192.289 32.1285V29.6654L191.914 29.1299H193.414L193.039 29.6654V32.1285L193.414 32.664H191.914Z" fill="#303030"/>
<path d="M195.395 32.1285V29.6653L195.02 29.1299H196.519L196.145 29.6653V32.0214L197.858 29.0763H198.876L198.501 29.6118V32.075L198.876 32.6105H197.323L197.697 32.075V29.7189L195.984 32.664H194.967L195.395 32.1285ZM196.948 28.9157C196.627 28.9157 196.359 28.8621 196.198 28.7015C196.037 28.5944 195.93 28.3802 195.93 28.166H196.519C196.519 28.3267 196.573 28.4873 196.627 28.5944C196.68 28.7015 196.787 28.755 196.948 28.755C197.108 28.755 197.162 28.7015 197.269 28.5944C197.323 28.4873 197.376 28.3802 197.376 28.166H197.965C197.965 28.4338 197.858 28.5944 197.697 28.7015C197.537 28.8086 197.323 28.9157 196.948 28.9157Z" fill="#303030"/>
<path d="M118.983 40.2671V40.2135C118.929 40.2135 118.876 40.2135 118.876 40.2135C118.822 40.2135 118.768 40.2135 118.715 40.2135C118.447 40.2135 118.233 40.16 118.072 40.1064C117.858 40.0529 117.697 39.9458 117.59 39.7851C117.43 39.678 117.376 39.5174 117.269 39.3567C117.216 39.1961 117.162 39.0355 117.162 38.8748C117.162 38.6606 117.216 38.5 117.269 38.3393C117.323 38.1787 117.43 38.0181 117.59 37.911C117.751 37.8039 117.912 37.6968 118.126 37.5897C118.34 37.5361 118.608 37.4826 118.876 37.4826C118.929 37.4826 118.929 37.4826 118.929 37.4826H118.983V37.429L118.608 36.8936H120.054L119.679 37.429V37.4826C119.732 37.4826 119.786 37.4826 119.786 37.4826C119.839 37.4826 119.893 37.4826 119.946 37.4826C120.214 37.4826 120.428 37.5361 120.589 37.5897C120.803 37.6432 120.964 37.7503 121.071 37.911C121.232 38.0181 121.285 38.1787 121.392 38.3393C121.446 38.5 121.499 38.6606 121.499 38.8213C121.499 39.0355 121.446 39.1961 121.392 39.3567C121.339 39.5174 121.232 39.678 121.071 39.7851C120.91 39.8922 120.75 39.9993 120.535 40.1064C120.321 40.16 120.054 40.2135 119.786 40.2135C119.732 40.2135 119.732 40.2135 119.732 40.2135H119.679V40.2671L120.054 40.8025H118.608L118.983 40.2671ZM118.983 37.8039C118.929 37.7503 118.822 37.7503 118.715 37.7503C118.554 37.7503 118.394 37.8039 118.286 37.911C118.179 38.0181 118.072 38.1251 118.019 38.2322C117.965 38.3393 117.912 38.5 117.912 38.6071C117.912 38.7142 117.912 38.8213 117.912 38.8748C117.912 39.2496 118.019 39.5174 118.179 39.7316C118.34 39.9458 118.608 39.9993 119.036 39.9993V37.8039H118.983ZM119.625 39.9458C119.679 39.9993 119.786 39.9993 119.893 39.9993C120.054 39.9993 120.214 39.9458 120.321 39.8387C120.428 39.7316 120.535 39.6245 120.589 39.5174C120.643 39.4103 120.696 39.2496 120.696 39.1425C120.696 39.0355 120.696 38.9284 120.696 38.8748C120.696 38.5 120.589 38.2322 120.428 38.0181C120.268 37.8039 120 37.7503 119.572 37.7503V39.9458H119.625Z" fill="#303030"/>
<path d="M126.64 38.7145C126.64 38.9822 126.586 39.1964 126.533 39.4642C126.426 39.6784 126.319 39.8925 126.158 40.1067C125.997 40.2674 125.783 40.428 125.515 40.5351C125.248 40.6422 124.98 40.6958 124.659 40.6958C124.391 40.6958 124.177 40.6422 124.016 40.5351C123.802 40.428 123.641 40.3209 123.534 40.1603C123.374 39.9996 123.32 39.839 123.213 39.6248C123.159 39.4106 123.106 39.1964 123.106 38.9822C123.106 38.7145 123.159 38.5003 123.213 38.2326C123.32 37.9648 123.427 37.8042 123.588 37.59C123.748 37.4294 123.963 37.2687 124.23 37.1616C124.498 37.0545 124.766 37.001 125.087 37.001C125.355 37.001 125.569 37.0545 125.73 37.1616C125.944 37.2687 126.104 37.3758 126.212 37.5365C126.372 37.6971 126.426 37.8577 126.533 38.0719C126.586 38.2861 126.64 38.5003 126.64 38.7145ZM124.659 37.2687C124.498 37.2687 124.337 37.3223 124.23 37.3758C124.123 37.4829 124.016 37.5365 123.963 37.6971C123.909 37.8042 123.855 37.9648 123.855 38.0719C123.855 38.179 123.802 38.3397 123.802 38.4468C123.802 38.7145 123.802 38.9822 123.855 39.1964C123.909 39.4642 123.963 39.6784 124.07 39.839C124.177 40.0532 124.284 40.2138 124.444 40.3209C124.605 40.428 124.766 40.4816 124.926 40.4816C125.087 40.4816 125.248 40.428 125.355 40.3745C125.462 40.2674 125.569 40.2138 125.623 40.0532C125.676 39.9461 125.73 39.7854 125.783 39.6784C125.837 39.5713 125.837 39.4106 125.837 39.3035C125.837 39.0358 125.783 38.768 125.73 38.5539C125.676 38.2861 125.569 38.0719 125.515 37.9113C125.408 37.6971 125.301 37.59 125.141 37.4294C125.033 37.3223 124.873 37.2687 124.659 37.2687Z" fill="#303030"/>
<path d="M131.834 40.6425H130.335L130.71 40.1071V38.929H129.103V40.1071L129.478 40.6425H127.979L128.353 40.1071V37.6439L127.979 37.1084H129.478L129.103 37.6439V38.6613H130.71V37.6439L130.335 37.1084H131.834L131.459 37.6439V40.1071L131.834 40.6425Z" fill="#303030"/>
<path d="M133.333 41.6064V40.4283H133.869C134.029 40.2142 134.083 39.8393 134.137 39.4109C134.19 38.929 134.19 38.34 134.19 37.6439L133.762 37.1084H136.76L136.386 37.6439V40.4283H136.921V41.6064H136.867L136.171 40.6425H134.029L133.333 41.6064ZM135.689 40.4283V37.3761H134.511C134.511 37.8045 134.511 38.1793 134.511 38.5006C134.511 38.8219 134.458 39.1432 134.458 39.3574C134.404 39.6251 134.404 39.8393 134.351 40C134.297 40.1606 134.244 40.3212 134.19 40.4283H135.689Z" fill="#303030"/>
<path d="M12.1553 21.7401C11.9946 21.7401 11.7269 21.7401 11.5127 21.633C11.1914 21.5259 10.7095 21.3117 10.1205 19.9195C9.15663 17.6169 6.63989 11.2983 6.37216 10.7093C6.15797 10.2274 6.10442 10.1738 5.99732 10.1738C5.89023 10.1738 5.83668 10.2809 5.62249 10.7629L1.98126 20.2408C1.71352 20.9904 1.39224 21.5794 0.642571 21.6865C0.535476 21.6865 0.267737 21.7401 0.160642 21.7401C0.0535471 21.7401 0 21.7936 0 21.8472C0 21.9543 0.107095 21.9543 0.321285 21.9543C1.07095 21.9543 1.98126 21.9007 2.1419 21.9007C2.30254 21.9007 2.99866 21.9543 3.37349 21.9543C3.53414 21.9543 3.64123 21.9007 3.64123 21.8472C3.64123 21.7936 3.58768 21.7401 3.48059 21.7401H3.31995C3.05221 21.7401 2.73092 21.5795 2.73092 21.3117C2.73092 21.044 2.78447 20.6691 2.94511 20.2943L3.90897 17.5634C3.96252 17.5098 3.96252 17.4563 4.06961 17.4563H7.5502C7.6573 17.4563 7.6573 17.5098 7.71084 17.5634L9.21017 21.3117C9.26372 21.3653 9.26372 21.4724 9.26372 21.5259C9.26372 21.6865 9.15663 21.7401 9.15663 21.7401C9.10308 21.7401 9.04953 21.7936 9.04953 21.8472C9.04953 21.9543 9.21017 21.9543 9.53146 21.9543C10.656 22.0078 11.834 22.0078 12.0482 22.0078C12.2088 22.0078 12.3695 21.9543 12.3695 21.9007C12.3159 21.7401 12.2088 21.7401 12.1553 21.7401ZM7.33601 16.8673H4.2838C4.23025 16.8673 4.17671 16.8137 4.23025 16.7602L5.62249 12.637C5.67604 12.5299 5.67604 12.4764 5.72959 12.4764C5.78313 12.4764 5.78313 12.5299 5.83668 12.637L7.38956 16.7602C7.38956 16.8137 7.38956 16.8673 7.33601 16.8673Z" fill="#303030"/>
<path d="M23.8286 10.8701C23.079 10.8701 22.1687 10.9237 21.7938 10.9237C21.6867 10.9237 20.7229 10.8701 19.9732 10.8701C19.8126 10.8701 19.7055 10.9237 19.7055 10.9772C19.7055 11.0308 19.759 11.0843 19.8126 11.0843C19.9732 11.0843 20.241 11.0843 20.3481 11.1379C20.8835 11.2449 20.9906 11.5127 21.0442 11.9946C21.0977 12.4765 21.0977 12.9049 21.0977 15.3146V17.9919C21.0977 19.4377 21.0977 20.6693 20.9906 21.3119C20.9371 21.7403 20.83 22.1151 20.5087 22.1686C20.3481 22.2222 20.1874 22.2222 20.0268 22.2222C19.9197 22.2222 19.9197 22.2757 19.9197 22.3293C19.9197 22.4364 20.0268 22.4364 20.1874 22.4364C20.6693 22.4364 21.6867 22.3828 21.7403 22.3828C21.7938 22.3828 22.8112 22.4364 23.7216 22.4364C23.8822 22.4364 23.9893 22.3828 23.9893 22.3293C23.9893 22.2757 23.9357 22.2222 23.8822 22.2222C23.7216 22.2222 23.4003 22.1686 23.1325 22.1686C22.6506 22.1151 22.5435 21.7938 22.49 21.3119C22.3829 20.6693 22.3829 19.4377 22.3829 17.9919V11.7269C22.3829 11.5662 22.4364 11.4591 22.49 11.4591C22.6506 11.4056 22.9183 11.352 23.1861 11.352C23.5609 11.352 24.5248 11.2985 25.3815 12.1017C26.2383 12.9049 26.2918 13.9759 26.2918 14.4578C26.2918 15.85 25.0602 16.9745 23.5074 16.9745C23.1861 16.9745 23.079 16.9745 23.079 17.1352C23.079 17.1887 23.1861 17.2423 23.2396 17.2423C23.2932 17.2423 23.5074 17.2423 23.5609 17.2423C25.8635 17.2423 27.5234 15.7965 27.5234 13.601C27.5234 12.7978 27.095 12.1017 26.7202 11.7804C26.5596 11.5127 25.8635 10.8701 23.8286 10.8701Z" fill="#303030"/>
<path d="M47.2289 21.7407C47.1218 21.7407 46.9076 21.6872 46.6934 21.6337C46.2115 21.473 45.9973 21.2588 45.7296 20.9375C45.4083 20.5092 42.6238 16.0647 42.3561 15.5828L44.9264 11.888C45.4083 11.2454 45.676 10.7635 46.158 10.6564C46.3186 10.6029 46.5863 10.6029 46.6934 10.6029C46.8005 10.6029 46.8541 10.5493 46.8541 10.4958C46.8541 10.4422 46.8005 10.3887 46.5863 10.3887C46.0509 10.3887 45.3547 10.4422 45.2477 10.4422C45.087 10.4422 44.4444 10.3887 43.8019 10.3887C43.5877 10.3887 43.5341 10.4422 43.5341 10.4958C43.5341 10.5493 43.5877 10.6029 43.6948 10.6029C43.8019 10.6029 44.0161 10.6029 44.1767 10.6564C44.3373 10.71 44.4444 10.8171 44.4444 10.9241C44.4444 11.0848 44.3909 11.2454 44.2838 11.4596C44.1232 11.7809 42.4096 14.4047 41.9277 15.0473C41.0709 13.7086 40.4284 12.5841 39.7323 11.4061C39.6252 11.2454 39.5716 11.0312 39.5716 10.9241C39.5716 10.8171 39.6252 10.71 39.7858 10.6564C39.8929 10.6029 40.1071 10.6029 40.2142 10.6029C40.3213 10.6029 40.3748 10.5493 40.3748 10.4958C40.3748 10.4422 40.3213 10.3887 40.1071 10.3887C39.5716 10.3887 38.7149 10.4422 38.6078 10.4422C38.5007 10.4422 37.162 10.3887 36.7336 10.3887C36.5194 10.3887 36.4659 10.4422 36.4659 10.4958C36.4659 10.5493 36.5194 10.6029 36.6265 10.6029C36.7336 10.6029 37.0549 10.6564 37.3226 10.71C37.8581 10.8706 38.1794 11.3525 38.5542 11.9416L41.1245 16.0647L38.2329 20.4556C37.6975 21.2588 37.3762 21.5801 36.8942 21.6872C36.6265 21.7407 36.4123 21.7407 36.3052 21.7407C36.1981 21.7407 36.1981 21.7943 36.1981 21.8478C36.1981 21.9014 36.2517 21.9549 36.3588 21.9549C36.8942 21.9549 37.6975 21.9014 37.8045 21.9014C37.9116 21.9014 38.9826 21.9549 39.3574 21.9549C39.4645 21.9549 39.5716 21.9014 39.5716 21.8478C39.5716 21.7943 39.5181 21.7407 39.4645 21.7407C39.411 21.7407 39.2503 21.7407 39.1432 21.6872C38.9826 21.6337 38.8755 21.5266 38.8755 21.4195C38.8755 21.2588 38.929 20.9911 39.0897 20.7233L41.6064 16.6537C42.5703 18.2066 43.4806 19.7059 44.3909 21.2053C44.5515 21.473 44.3909 21.5801 44.2838 21.6337C44.2302 21.6337 44.1767 21.6872 44.1767 21.7407C44.1767 21.7943 44.2303 21.8478 44.6586 21.8478C45.4618 21.8478 46.2651 21.9014 47.2289 21.9014C47.3896 21.9014 47.4431 21.8478 47.4431 21.7943C47.3896 21.7407 47.336 21.7407 47.2289 21.7407Z" fill="#303030"/>
<path d="M68.3802 21.7406C68.2195 21.7406 67.8983 21.6871 67.6841 21.6871C67.2021 21.6335 67.095 21.3123 67.0415 20.8303C66.9879 20.1878 66.988 18.9562 66.988 17.5104V14.833C66.988 12.7982 66.988 11.995 66.988 10.6028C67.0415 10.1208 66.8273 10.0137 66.6131 10.335C63.2932 14.4046 61.0442 16.9214 58.7952 19.4916C58.7416 19.5452 58.6345 19.5452 58.6345 19.4381C58.6345 14.4046 58.6345 11.995 58.6881 11.5131C58.7416 10.9776 58.8487 10.7098 59.2771 10.6563C59.4913 10.6028 59.5448 10.6028 59.6519 10.6028C59.7055 10.6028 59.759 10.5492 59.759 10.4957C59.759 10.3886 59.7055 10.3886 59.4913 10.3886C59.0094 10.3886 57.992 10.4421 57.9384 10.4421C57.8313 10.4421 56.8675 10.3886 56.1178 10.3886C55.9572 10.3886 55.8501 10.4421 55.8501 10.4957C55.8501 10.5492 55.9036 10.6028 55.9572 10.6028C56.1178 10.6028 56.3855 10.6028 56.4926 10.6563C57.0281 10.7634 57.1352 11.0311 57.1888 11.5131C57.2423 11.995 57.1888 12.4234 57.2423 14.833V21.8477C57.1888 22.3297 57.4029 22.4368 57.6171 22.1155L57.8313 21.8477L59.17 20.1878C61.1513 17.7246 63.2932 15.3149 65.3815 12.9588C65.5422 12.7982 65.5957 12.9053 65.5957 13.0659V17.5104C65.5957 18.9562 65.5957 20.1878 65.5422 20.8303C65.4886 21.2587 65.3815 21.6335 65.0602 21.6871C64.8996 21.7406 64.739 21.7406 64.5783 21.7406C64.4712 21.7406 64.4712 21.7942 64.4712 21.8477C64.4712 21.9548 64.5248 21.9548 64.739 21.9548C65.2209 21.9548 66.2383 21.9013 66.2918 21.9013C66.3989 21.9013 67.3628 21.9548 68.2731 21.9548C68.4337 21.9548 68.5408 21.9013 68.5408 21.8477C68.5408 21.7406 68.4873 21.7406 68.3802 21.7406Z" fill="#303030"/>
<path d="M88.7283 19.1706C88.6212 19.1706 88.6212 19.2242 88.5676 19.3848C88.5141 19.6526 88.2999 20.3487 87.9786 20.67C87.336 21.3125 86.3722 21.4196 85.1941 21.4196C81.7671 21.4196 79.411 18.7422 79.411 15.7971C79.411 13.0662 80.4284 10.7101 84.5515 10.7101C86.5864 10.7101 88.4605 11.3527 88.4605 13.1198C88.4605 13.3339 88.4605 13.441 88.5676 13.441C88.6747 13.441 88.7283 13.2269 88.7283 12.4772C88.7283 11.5669 88.8354 10.8708 88.8354 10.7101C88.8354 10.603 88.7818 10.5495 88.6212 10.5495C88.0321 10.5495 86.5864 10.1211 84.6587 10.1211C79.5716 10.1211 77.9652 13.4946 77.9652 15.9578C77.9652 19.4919 80.3213 22.1157 85.1941 22.1157C86.2115 22.1157 87.4431 22.0086 88.0857 21.7409C88.3534 21.6338 88.407 21.5803 88.5141 21.3125C88.6747 20.7771 88.8889 19.4384 88.8889 19.3313C88.8354 19.2777 88.8354 19.1706 88.7283 19.1706Z" fill="#303030"/>
<path d="M120.643 10.335C119.893 10.335 118.983 10.3885 118.608 10.3885C118.501 10.3885 117.537 10.335 116.787 10.335C116.627 10.335 116.519 10.3885 116.519 10.4421C116.519 10.4956 116.573 10.5491 116.627 10.5491C116.787 10.5491 117.055 10.5492 117.162 10.6027C117.697 10.7098 117.805 10.9775 117.858 11.4595C117.912 11.9414 117.912 12.3698 117.912 14.7794V17.4568C117.912 18.9026 117.912 20.1342 117.858 20.7767C117.805 21.2051 117.697 21.5799 117.376 21.6335C117.216 21.687 117.055 21.687 116.894 21.687C116.787 21.687 116.787 21.7406 116.787 21.7941C116.787 21.9012 116.894 21.9012 117.055 21.9012C117.537 21.9012 118.554 21.8477 118.608 21.8477C118.715 21.8477 119.679 21.9012 120.589 21.9012C120.75 21.9012 120.857 21.8477 120.857 21.7941C120.857 21.7406 120.803 21.687 120.75 21.687C120.589 21.687 120.268 21.6335 120 21.6335C119.518 21.5799 119.411 21.2587 119.357 20.7767C119.25 20.1342 119.25 18.9026 119.25 17.4568V11.1917C119.25 11.0311 119.304 10.924 119.357 10.924C119.518 10.8704 119.786 10.8169 120.054 10.8169C120.428 10.8169 121.392 10.7633 122.249 11.5666C123.106 12.3698 123.159 13.4407 123.159 13.9226C123.159 15.3149 121.928 16.4394 120.375 16.4394C120.054 16.4394 119.946 16.4394 119.946 16.6C119.946 16.6536 120.054 16.7071 120.107 16.7071C120.161 16.7071 120.375 16.7071 120.428 16.7071C122.731 16.7071 124.391 15.2613 124.391 13.0659C124.391 12.2627 123.963 11.5666 123.588 11.2453C123.373 10.9775 122.624 10.335 120.643 10.335Z" fill="#303030"/>
<path d="M144.096 21.7401C143.936 21.7401 143.722 21.7401 143.454 21.633C143.133 21.5259 142.651 21.3117 142.062 19.9195C141.098 17.6169 138.581 11.2983 138.313 10.7093C138.099 10.2274 138.046 10.1738 137.938 10.1738C137.831 10.1738 137.778 10.2809 137.564 10.7629L133.922 20.2408C133.655 20.9904 133.333 21.5794 132.584 21.6865C132.477 21.6865 132.209 21.7401 132.102 21.7401C132.048 21.7401 131.941 21.7936 131.941 21.8472C131.941 21.9543 132.048 21.9543 132.262 21.9543C133.012 21.9543 133.922 21.9007 134.083 21.9007C134.244 21.9007 134.94 21.9543 135.315 21.9543C135.475 21.9543 135.582 21.9007 135.582 21.8472C135.582 21.7936 135.529 21.7401 135.422 21.7401H135.261C134.993 21.7401 134.672 21.5795 134.672 21.3117C134.672 21.044 134.726 20.6691 134.886 20.2943L135.85 17.5634C135.904 17.5098 135.904 17.4563 136.011 17.4563H139.491C139.598 17.4563 139.598 17.5098 139.652 17.5634L141.151 21.3117C141.205 21.3653 141.205 21.4724 141.205 21.5259C141.205 21.6865 141.098 21.7401 141.098 21.7401C141.044 21.7401 140.991 21.7936 140.991 21.8472C140.991 21.9543 141.151 21.9543 141.473 21.9543C142.597 22.0078 143.775 22.0078 143.989 22.0078C144.15 22.0078 144.311 21.9543 144.311 21.9007C144.257 21.7401 144.203 21.7401 144.096 21.7401ZM139.331 16.8673H136.278C136.225 16.8673 136.225 16.8137 136.225 16.7602L137.617 12.637C137.671 12.5299 137.724 12.4764 137.724 12.4764C137.778 12.4764 137.778 12.5299 137.831 12.637L139.331 16.7602C139.384 16.8137 139.384 16.8673 139.331 16.8673Z" fill="#303030"/>
<path d="M161.285 10.2274C161.178 10.2274 160.696 10.388 159.679 10.388H153.628C153.414 10.388 152.825 10.3345 152.343 10.3345C151.914 10.2809 151.754 10.1738 151.647 10.1738C151.593 10.1738 151.539 10.388 151.486 10.4416C151.432 10.5487 151.111 11.8873 151.111 12.048C151.111 12.1551 151.165 12.2086 151.165 12.2086C151.218 12.2086 151.272 12.1551 151.325 12.048C151.379 11.9409 151.432 11.8338 151.593 11.5661C151.861 11.1912 152.236 11.0841 153.253 11.0841L155.609 11.0306V17.5098C155.609 18.9556 155.609 20.1872 155.556 20.8298C155.502 21.2582 155.395 21.633 155.074 21.6865C154.913 21.7401 154.752 21.7401 154.592 21.7401C154.485 21.7401 154.485 21.7936 154.485 21.8472C154.485 21.9543 154.538 21.9543 154.752 21.9543C155.234 21.9543 156.252 21.9007 156.305 21.9007C156.359 21.9007 157.376 21.9543 158.286 21.9543C158.447 21.9543 158.554 21.9007 158.554 21.8472C158.554 21.7936 158.501 21.7401 158.447 21.7401C158.286 21.7401 157.965 21.6865 157.697 21.6865C157.216 21.633 157.108 21.3117 157.055 20.8298C157.001 20.1872 157.001 18.9556 157.001 17.5098V11.0306L159.036 11.0841C160.589 11.1377 160.964 11.459 161.017 11.9409V12.1015C161.017 12.3157 161.071 12.3693 161.124 12.3693C161.178 12.3693 161.232 12.3157 161.232 12.1551C161.232 11.9944 161.285 10.9235 161.285 10.4951C161.392 10.3345 161.392 10.2274 161.285 10.2274Z" fill="#303030"/>
<path d="M182.972 21.7406C182.811 21.7406 182.49 21.6871 182.222 21.6871C181.74 21.6335 181.633 21.3123 181.58 20.8303C181.526 20.1878 181.526 18.9562 181.526 17.5104V14.833C181.526 12.7982 181.526 11.995 181.526 10.6028C181.58 10.1208 181.365 10.0137 181.151 10.335C177.831 14.4046 175.582 16.9214 173.333 19.4916C173.28 19.5452 173.173 19.5452 173.173 19.4381C173.173 14.4046 173.173 11.995 173.226 11.5131C173.28 10.9776 173.387 10.7098 173.815 10.6563C174.029 10.6028 174.083 10.6028 174.19 10.6028C174.244 10.6028 174.297 10.5492 174.297 10.4957C174.297 10.3886 174.244 10.3886 174.029 10.3886C173.548 10.3886 172.53 10.4421 172.477 10.4421C172.369 10.4421 171.406 10.3886 170.656 10.3886C170.495 10.3886 170.388 10.4421 170.388 10.4957C170.388 10.5492 170.442 10.6028 170.495 10.6028C170.656 10.6028 170.924 10.6028 171.031 10.6563C171.566 10.7634 171.673 11.0311 171.727 11.5131C171.78 11.995 171.727 12.4234 171.78 14.833V21.8477C171.727 22.3297 171.941 22.4368 172.155 22.1155L172.369 21.8477L173.708 20.1878C175.689 17.7246 177.831 15.3149 179.92 12.9588C180.08 12.7982 180.134 12.9053 180.134 13.0659V17.5104C180.134 18.9562 180.134 20.1878 180.08 20.8303C180.027 21.2587 179.92 21.6335 179.598 21.6871C179.438 21.7406 179.277 21.7406 179.116 21.7406C179.009 21.7406 179.009 21.7942 179.009 21.8477C179.009 21.9548 179.063 21.9548 179.277 21.9548C179.759 21.9548 180.776 21.9013 180.83 21.9013C180.937 21.9013 181.901 21.9548 182.811 21.9548C182.972 21.9548 183.079 21.9013 183.079 21.8477C183.079 21.7406 183.025 21.7406 182.972 21.7406Z" fill="#303030"/>
<path d="M199.893 10.2275C199.839 10.2275 199.786 10.2811 199.679 10.3346C199.625 10.3346 199.25 10.3882 198.983 10.3882C198.768 10.3882 195.341 10.4417 195.02 10.4417C194.913 10.4417 193.949 10.3882 193.199 10.3882C193.039 10.3882 192.932 10.4417 192.932 10.4953C192.932 10.5488 192.985 10.6024 193.039 10.6024C193.199 10.6024 193.467 10.6024 193.574 10.6559C194.11 10.763 194.217 10.9772 194.27 11.352C194.324 11.6198 194.324 12.2623 194.324 14.8326V17.51C194.324 19.3842 194.27 20.6158 194.217 20.9906C194.11 21.419 194.056 21.5796 193.788 21.6332C193.628 21.6867 193.467 21.6867 193.307 21.6867C193.199 21.6867 193.199 21.7403 193.199 21.7938C193.199 21.9009 193.307 21.9009 193.467 21.9009C193.949 21.9009 194.913 21.8474 194.967 21.8474C195.074 21.8474 196.037 21.9009 196.948 21.9009C197.108 21.9009 197.216 21.8474 197.216 21.7938C197.216 21.7403 197.162 21.6867 197.108 21.6867C196.948 21.6867 196.626 21.6332 196.359 21.6332C195.984 21.5796 195.823 21.3654 195.77 20.937C195.716 20.4551 195.663 18.9558 195.663 17.4565V11.1378C195.663 11.0308 195.716 10.9772 195.823 10.9772L198.019 11.0308C198.983 11.0308 199.357 11.352 199.465 11.5127C199.572 11.7269 199.625 11.9946 199.625 12.1017C199.625 12.2088 199.679 12.2623 199.732 12.2623C199.839 12.2623 199.839 12.2088 199.839 12.1017C199.893 11.9411 199.893 11.2449 199.893 11.0843C199.946 10.6559 200 10.4953 200 10.3882C199.946 10.3346 199.946 10.2275 199.893 10.2275Z" fill="#303030"/>
<path d="M103.4 8.6747V0H101.954V8.6747H103.4Z" fill="#303030"/>
<path d="M109.987 11.1919V10.3887H95.3681V11.1919H109.987Z" fill="#303030"/>
<path d="M103.4 12.6904L103.025 62.1148C103.025 62.2754 102.865 64.578 102.704 64.578C102.544 64.578 102.383 62.329 102.383 62.1148L101.954 12.6904H101.205L101.74 62.8109C101.74 63.5606 101.955 65.4883 102.704 65.4883C103.4 65.4883 103.668 63.507 103.668 62.8109L104.203 12.6904H103.4Z" fill="#303030"/>
</svg>
