<svg width="205" height="205" viewBox="0 0 205 205" fill="none" xmlns="http://www.w3.org/2000/svg">
<path d="M122.036 54.377L122.223 54.8848L122.714 54.6582L173.957 31.042L150.342 82.2861L150.115 82.7773L150.623 82.9639L203.557 102.5L150.623 122.036L150.115 122.223L150.342 122.714L173.957 173.957L122.714 150.342L122.223 150.115L122.036 150.623L102.5 203.557L82.9639 150.623L82.7773 150.115L82.2861 150.342L31.042 173.957L54.6582 122.714L54.8848 122.223L54.377 122.036L1.44238 102.5L54.377 82.9639L54.8848 82.7773L54.6582 82.2861L31.042 31.042L82.2861 54.6582L82.7773 54.8848L82.9639 54.377L102.5 1.44238L122.036 54.377Z" fill="white" stroke="#C07012"/>
</svg>
