<svg width="457" height="446" viewBox="0 0 457 446" fill="none" xmlns="http://www.w3.org/2000/svg">
<path d="M279.094 2.56491C280.693 -0.971236 286.003 0.336388 285.777 4.21093L278.158 134.996C277.95 138.56 281.775 140.934 284.876 139.168L398.718 74.3354C402.09 72.4154 405.616 76.5936 403.156 79.5953L320.118 180.924C317.856 183.685 319.555 187.855 323.102 188.249L453.308 202.713C457.166 203.141 457.563 208.594 453.808 209.577L327.07 242.745C323.617 243.649 322.54 248.021 325.178 250.426L422.016 338.659C424.885 341.273 422 345.918 418.385 344.506L296.356 296.845C293.031 295.547 289.589 298.451 290.311 301.946L316.791 430.249C317.576 434.05 312.513 436.113 310.418 432.846L239.708 322.559C237.781 319.555 233.291 319.882 231.82 323.134L177.829 442.498C176.229 446.034 170.92 444.726 171.146 440.852L178.765 310.067C178.973 306.503 175.148 304.128 172.046 305.894L58.2052 370.727C54.8328 372.647 51.307 368.469 53.7669 365.467L136.805 264.138C139.067 261.378 137.368 257.208 133.82 256.814L3.61432 242.35C-0.242946 241.922 -0.640043 236.468 3.11452 235.486L129.853 202.318C133.306 201.414 134.383 197.041 131.745 194.637L34.9068 106.404C32.0381 103.79 34.9224 99.1445 38.5375 100.556L160.567 148.217C163.892 149.516 167.333 146.612 166.612 143.116L140.13 14.8134C139.346 11.0128 144.41 8.95011 146.505 12.2166L217.215 122.504C219.141 125.508 223.631 125.181 225.102 121.929L279.094 2.56491Z" stroke="#C07012"/>
</svg>
